# xmcd
#
# Track frame offsets:
#	150
#	38547
#	78576
#	106346
#	138070
#	164085
#	187353
#
# Disc length: 2789
#
# Revision: 4
# Processed by: cddbd v1.5.1PL0 Copyright (c) Steve Scherf et al.
# Submitted via: CDex 1.51
# Normalized: r3:TRMNUM
#
DISCID=5a0ae307
DTITLE=Derivados do Blues - Derivados live at Bourbon Street 2
DYEAR=2005
DGENRE=Blues
TTITLE0=Got My Mojo Workin' (com Fábio Pugliesi)
TTITLE1=The Sky is Crying (com Igor Prado)
TTITLE2=Woke Up This Morning (com Sérgio Duarte)
TTITLE3=The Thrill is Gone (com Bruno e Rodrigo Tostines)
TTITLE4=Sweet home Chicago (com Alex Dupas)
TTITLE5=Chekin' on my Baby (com Renato Limão e Melk Rocha)
TTITLE6=Johnny B. Good
EXTD=YEAR: 2005
EXTT0=
EXTT1=
EXTT2=
EXTT3=
EXTT4=
EXTT5=
EXTT6=
PLAYORDER=
